<svg xmlns="http://www.w3.org/2000/svg" id="_003---Call" data-name="003---Call" width="11.64" height="11.64" viewBox="0 0 11.64 11.64"><path id="Shape" d="M5.817,6.867A4.7,4.7,0,0,1,4.4,4.2a.4.4,0,0,1,.115-.334l.9-.9a.4.4,0,0,0,.057-.5L4.037.248A.4.4,0,0,0,3.517.1l-2.3,1.082a.4.4,0,0,0-.221.4A11.107,11.107,0,0,0,4.381,8.3,11.1,11.1,0,0,0,11.1,11.684a.4.4,0,0,0,.4-.221l1.082-2.3a.4.4,0,0,0-.145-.519L10.213,7.215a.4.4,0,0,0-.5.056l-.9.9a.4.4,0,0,1-.334.115A4.7,4.7,0,0,1,5.817,6.867Z" transform="translate(-0.997 -0.046)" fill="#fdc500"></path><path id="Shape-2" data-name="Shape" d="M32.213,14.657a.443.443,0,0,1-.443-.443,3.33,3.33,0,0,0-3.326-3.326.443.443,0,1,1,0-.887,4.218,4.218,0,0,1,4.213,4.213A.443.443,0,0,1,32.213,14.657Z" transform="translate(-22.904 -8.113)" fill="#fdc500"></path><path id="Shape-3" data-name="Shape" d="M34.431,6.874a.443.443,0,0,1-.443-.443A5.55,5.55,0,0,0,28.443.887a.443.443,0,1,1,0-.887,6.438,6.438,0,0,1,6.431,6.431.443.443,0,0,1-.443.443Z" transform="translate(-23.234)" fill="#fdc500"></path></svg>