<svg xmlns="http://www.w3.org/2000/svg" id="books" width="50.545" height="39.621" viewBox="0 0 50.545 39.621"><path id="Path_16" data-name="Path 16" d="M50.545,87.536,41.03,53.263l-8.2,2.277.906,3.264H24.61V54.258H16.1v3.364h-4.61V50.207H0V89.828H35.289V64.406l7.054,25.407ZM17.729,55.89h5.249v4.041H17.729Zm0,10.81h5.249V85.259H17.729Zm0-1.632v-.937h5.249v.937Zm0-2.568v-.937h5.249V62.5ZM9.855,85.02H1.632V54.993H9.855Zm0-33.181v1.522H1.632V51.839ZM1.632,88.2V86.652H9.855V88.2Zm14.466,0h-4.61V59.254H16.1Zm1.632,0v-1.3h5.249v1.3Zm15.927,0H24.61V60.436h9.047Zm9.822-.392L37.741,67.137l5.057-1.4L48.536,86.4ZM37.3,65.564l-.45-1.619,5.057-1.4.45,1.619Zm2.59-10.292,1.582,5.7-5.057,1.4-1.582-5.7Z" transform="translate(0 -50.207)" fill="#252525"></path><rect id="Rectangle_8" data-name="Rectangle 8" width="5.999" height="1.862" transform="translate(26.071 11.922)" fill="#fdc500"></rect><rect id="Rectangle_9" data-name="Rectangle 9" width="5.999" height="1.862" transform="translate(26.071 14.772)" fill="#fdc500"></rect><rect id="Rectangle_10" data-name="Rectangle 10" width="5.999" height="1.862" transform="translate(26.071 17.622)" fill="#fdc500"></rect><rect id="Rectangle_11" data-name="Rectangle 11" width="5.999" height="1.862" transform="translate(26.071 33.589)" fill="#fdc500"></rect><rect id="Rectangle_12" data-name="Rectangle 12" width="1.862" height="3.136" transform="translate(12.915 23.906)" fill="#fdc500"></rect><rect id="Rectangle_13" data-name="Rectangle 13" width="1.862" height="7.089" transform="translate(12.915 26.886)" fill="#fdc500"></rect><rect id="Rectangle_14" data-name="Rectangle 14" width="1.862" height="8.453" transform="translate(12.915 14.707)" fill="#fdc500"></rect><rect id="Rectangle_15" data-name="Rectangle 15" width="1.862" height="3.272" transform="translate(12.915 10.779)" fill="#fdc500"></rect></svg>