<svg xmlns="http://www.w3.org/2000/svg" id="mail" width="11.64" height="8.185" viewBox="0 0 11.64 8.185"><g id="Group_16" data-name="Group 16" transform="translate(0 0)"><g id="Group_2" data-name="Group 2" transform="translate(8.008 0.585)"><g id="Group_1" data-name="Group 1"><path id="Path_1" data-name="Path 1" d="M355.741,101.721l-3.53,3.508,3.53,3.508a1.011,1.011,0,0,0,.1-.438v-6.138A1.011,1.011,0,0,0,355.741,101.721Z" transform="translate(-352.211 -101.721)" fill="#fdc500"></path></g></g><g id="Group_4" data-name="Group 4" transform="translate(0.585)"><g id="Group_3" data-name="Group 3"><path id="Path_2" data-name="Path 2" d="M35.754,76H26.159a1.011,1.011,0,0,0-.438.1l4.512,4.489a1.024,1.024,0,0,0,1.447,0L36.192,76.1A1.011,1.011,0,0,0,35.754,76Z" transform="translate(-25.721 -76)" fill="#fdc500"></path></g></g><g id="Group_6" data-name="Group 6" transform="translate(0 0.585)"><g id="Group_5" data-name="Group 5"><path id="Path_3" data-name="Path 3" d="M.1,101.721a1.011,1.011,0,0,0-.1.438V108.3a1.011,1.011,0,0,0,.1.438l3.53-3.508Z" transform="translate(0 -101.721)" fill="#fdc500"></path></g></g><g id="Group_8" data-name="Group 8" transform="translate(0.585 4.575)"><g id="Group_7" data-name="Group 7"><path id="Path_4" data-name="Path 4" d="M32.662,277.211l-.5.5a1.707,1.707,0,0,1-2.411,0l-.5-.5-3.53,3.508a1.012,1.012,0,0,0,.438.1h9.594a1.012,1.012,0,0,0,.438-.1Z" transform="translate(-25.721 -277.211)" fill="#fdc500"></path></g></g></g></svg>