<svg xmlns="http://www.w3.org/2000/svg" id="XMLID_1124_" width="50.545" height="45.214" viewBox="0 0 50.545 45.214"><g id="XMLID_258_" transform="translate(0 0)"><path id="XMLID_284_" d="M96.771,215H83.723a3.394,3.394,0,0,0-3.39,3.39v9a3.394,3.394,0,0,0,3.39,3.39H96.771a3.394,3.394,0,0,0,3.39-3.39v-9A3.394,3.394,0,0,0,96.771,215Zm1.367,12.392a1.368,1.368,0,0,1-1.367,1.367H83.723a1.368,1.368,0,0,1-1.367-1.367v-9a1.368,1.368,0,0,1,1.367-1.367H96.771a1.368,1.368,0,0,1,1.367,1.367Z" transform="translate(-72.524 -196.678)" fill="#fdc500"></path><path id="XMLID_285_" d="M159.258,269.353l-2.687-1.551a1.012,1.012,0,0,0-1.517.876v3.1a1.012,1.012,0,0,0,1.517.876l2.687-1.551a1.012,1.012,0,0,0,0-1.752Z" transform="translate(-139.785 -243.981)" fill="#fdc500"></path><path id="XMLID_288_" d="M50.014,33.529,37.686,27.112a.987.987,0,0,0-.912,0L24.446,33.529a.987.987,0,0,0,0,1.751l4.747,2.471v2.083H9.379a6.622,6.622,0,0,0-6.614,6.614V64.712H.987A.987.987,0,0,0,0,65.7a6.523,6.523,0,0,0,6.516,6.516H38.7A6.523,6.523,0,0,0,45.215,65.7a.987.987,0,0,0-.987-.987H42.45V46.449c0-.138-.006-.277-.015-.415l2.23-.947a.987.987,0,0,0,.6-.909V37.751l3.3-1.72v6.042a.987.987,0,0,0,1.974,0V34.4a.987.987,0,0,0-.531-.876ZM40.476,64.712H27.05a.987.987,0,0,0,0,1.974H43.132A4.549,4.549,0,0,1,38.7,70.241H6.516a4.549,4.549,0,0,1-4.433-3.554H18.165a.987.987,0,0,0,0-1.974H4.739V46.449a4.645,4.645,0,0,1,4.64-4.64H29.193v2.369a.987.987,0,0,0,.6.909l7.05,2.995a.987.987,0,0,0,.772,0l2.86-1.215Zm2.817-21.187L37.23,46.1l-6.063-2.575V38.779L36.774,41.7a.987.987,0,0,0,.912,0l5.607-2.918ZM37.23,39.708,27.04,34.4l10.19-5.3,10.19,5.3Z" transform="translate(0 -27)" fill="#252525"></path><path id="XMLID_291_" d="M367.416,92.3a1.011,1.011,0,1,0,.715-.3A1.019,1.019,0,0,0,367.416,92.3Z" transform="translate(-330.914 -85.423)" fill="#252525"></path><path id="XMLID_297_" d="M313.542,351h-5.53a1.012,1.012,0,1,0,0,2.023h5.53a1.012,1.012,0,0,0,0-2.023Z" transform="translate(-276.821 -319.05)" fill="#252525"></path><path id="XMLID_298_" d="M313.542,303h-5.53a1.012,1.012,0,1,0,0,2.023h5.53a1.012,1.012,0,0,0,0-2.023Z" transform="translate(-276.821 -275.784)" fill="#252525"></path><path id="XMLID_299_" d="M220.012,409a1.012,1.012,0,1,0,.715.3A1.019,1.019,0,0,0,220.012,409Z" transform="translate(-197.402 -371.474)" fill="#252525"></path></g></svg>