<svg xmlns="http://www.w3.org/2000/svg" id="XMLID_2123_" width="50.545" height="50.545" viewBox="0 0 50.545 50.545"><g id="XMLID_197_" transform="translate(0 0)"><path id="XMLID_606_" d="M43.746,186.739a4.982,4.982,0,0,0,1.029-3.036v-1.749a5.009,5.009,0,0,0-10.018,0V183.7a4.982,4.982,0,0,0,1.027,3.034h-5.6a7.086,7.086,0,0,0,2.2-5.134v-4.546a7.108,7.108,0,1,0-14.216,0V181.6a7.086,7.086,0,0,0,2.2,5.134h-5.6a4.982,4.982,0,0,0,1.027-3.034v-1.749a5.009,5.009,0,0,0-10.018,0V183.7A4.982,4.982,0,0,0,6.8,186.739,6.873,6.873,0,0,0,0,193.6v3.739a.987.987,0,0,0,.987.987h7.9v4.4a.987.987,0,0,0,.987.987h2.764a.987.987,0,1,0,0-1.974H10.859v-4.81a8.231,8.231,0,0,1,7.573-8.194l5.366,13H21.521a.987.987,0,1,0,0,1.974H40.673a.987.987,0,0,0,.987-.987v-4.4h7.9a.987.987,0,0,0,.987-.987V193.6A6.873,6.873,0,0,0,43.746,186.739ZM36.732,183.7v-1.749a3.034,3.034,0,1,1,6.069,0V183.7a3.034,3.034,0,0,1-6.069,0ZM25.273,171.924a5.139,5.139,0,0,1,5.134,5.134v.01h0a8.36,8.36,0,0,1-4.589-1.368.987.987,0,0,0-1.081,0,8.36,8.36,0,0,1-4.589,1.368h0v-.01A5.139,5.139,0,0,1,25.273,171.924Zm-5.134,9.68v-2.562h0a10.324,10.324,0,0,0,5.129-1.36,10.324,10.324,0,0,0,5.129,1.36h0V181.6a5.134,5.134,0,0,1-10.267,0Zm-12.394.35a3.034,3.034,0,1,1,6.069,0V183.7a3.034,3.034,0,0,1-6.069,0Zm1.157,14.4H1.974V193.6a4.9,4.9,0,0,1,4.891-4.891h6.192A10.193,10.193,0,0,0,8.9,196.355Zm11.669-7.643h3.714v2.369a.987.987,0,1,0,1.974,0v-2.369h3.729l-4.716,11.43-4.716-11.43Zm19.115,13.031H26.748l5.366-13a8.231,8.231,0,0,1,7.573,8.194Zm8.885-5.389H41.644a10.193,10.193,0,0,0-4.156-7.643H43.68a4.9,4.9,0,0,1,4.891,4.891Z" transform="translate(0 -153.172)" fill="#252525"></path><path id="XMLID_619_" d="M179.937,7.606l2.356,1.7-.9,2.754a1.939,1.939,0,0,0,2.987,2.17l2.34-1.708,2.34,1.708a1.91,1.91,0,0,0,2.283,0,1.91,1.91,0,0,0,.7-2.172l-.9-2.753,2.356-1.7A1.939,1.939,0,0,0,192.364,4.1h-2.91l-.89-2.752a1.939,1.939,0,0,0-3.691,0l-.89,2.752h-2.91a1.939,1.939,0,0,0-1.136,3.511ZM184.7,6.07a.987.987,0,0,0,.939-.684l1.077-3.332L187.8,5.386a.987.987,0,0,0,.939.684h3.52L189.4,8.133a.988.988,0,0,0-.36,1.107l1.091,3.335L187.3,10.506a.987.987,0,0,0-1.164,0L183.3,12.574l1.092-3.335a.987.987,0,0,0-.36-1.107L181.182,6.07h3.52Z" transform="translate(-161.446 0)" fill="#fdc500"></path><path id="XMLID_620_" d="M163.987,492a.988.988,0,1,0,.7.289A.994.994,0,0,0,163.987,492Z" transform="translate(-146.908 -443.429)" fill="#091743"></path></g></svg>