<svg width="287" height="36" viewBox="0 0 287 36" fill="none" xmlns="http://www.w3.org/2000/svg">
<rect x="1.0177" y="1.35278" width="285" height="34" rx="3.5" stroke="#E0E3E7"/>
<path d="M92.2061 18.795C92.2061 17.8282 91.4223 17.0444 90.4555 17.0444H82.2835C81.3167 17.0444 80.533 17.8282 80.533 18.795C80.533 19.7618 81.3167 20.5456 82.2835 20.5456H90.4555C91.4223 20.5456 92.2061 19.7618 92.2061 18.795Z" fill="#216BDB"/>
<path d="M110.827 18.795C110.827 17.8282 110.043 17.0444 109.077 17.0444H100.904C99.9373 17.0444 99.1536 17.8282 99.1536 18.795C99.1536 19.7618 99.9373 20.5456 100.904 20.5456H109.077C110.043 20.5456 110.827 19.7618 110.827 18.795Z" fill="#CED0D3"/>
<path d="M129.506 18.795C129.506 17.8282 128.722 17.0444 127.755 17.0444H119.582C118.615 17.0444 117.831 17.8282 117.831 18.795C117.831 19.7618 118.615 20.5456 119.582 20.5456H127.755C128.722 20.5456 129.506 19.7618 129.506 18.795Z" fill="#CED0D3"/>
<path d="M148.182 18.795C148.182 17.8282 147.399 17.0444 146.432 17.0444H138.259C137.293 17.0444 136.509 17.8282 136.509 18.795C136.509 19.7618 137.293 20.5456 138.259 20.5456H146.432C147.399 20.5456 148.182 19.7618 148.182 18.795Z" fill="#CED0D3"/>
<path d="M166.86 18.795C166.86 17.8282 166.076 17.0444 165.109 17.0444H156.937C155.97 17.0444 155.186 17.8282 155.186 18.795C155.186 19.7618 155.97 20.5456 156.937 20.5456H165.109C166.076 20.5456 166.86 19.7618 166.86 18.795Z" fill="#CED0D3"/>
<path d="M185.537 18.795C185.537 17.8282 184.753 17.0444 183.787 17.0444H175.615C174.648 17.0444 173.864 17.8282 173.864 18.795C173.864 19.7618 174.648 20.5456 175.615 20.5456H183.787C184.753 20.5456 185.537 19.7618 185.537 18.795Z" fill="#CED0D3"/>
<path d="M204.215 18.795C204.215 17.8282 203.431 17.0444 202.464 17.0444H194.292C193.325 17.0444 192.541 17.8282 192.541 18.795C192.541 19.7618 193.325 20.5456 194.292 20.5456H202.464C203.431 20.5456 204.215 19.7618 204.215 18.795Z" fill="#CED0D3"/>
<path opacity="0.3" d="M254.411 16.7104C254.411 15.6059 253.515 14.7104 252.411 14.7104H219.056C217.951 14.7104 217.056 15.6059 217.056 16.7104V22.0467C217.056 23.1513 217.951 24.0467 219.056 24.0467H252.411C253.515 24.0467 254.411 23.1513 254.411 22.0467V16.7104Z" fill="#42474B"/>
<path d="M248.574 19.2117C248.574 18.6594 248.126 18.2117 247.574 18.2117H223.892C223.34 18.2117 222.892 18.6594 222.892 19.2117V19.5456C222.892 20.0979 223.34 20.5456 223.892 20.5456H247.574C248.126 20.5456 248.574 20.0979 248.574 19.5456V19.2117Z" fill="white"/>
<path d="M268.905 20.5709C269.292 20.1844 269.555 19.6918 269.662 19.1556C269.769 18.6194 269.714 18.0636 269.505 17.5584C269.296 17.0533 268.941 16.6215 268.487 16.3177C268.032 16.014 267.498 15.8518 266.951 15.8518C266.404 15.8518 265.87 16.014 265.415 16.3177C264.961 16.6215 264.606 17.0533 264.397 17.5584C264.188 18.0636 264.133 18.6194 264.24 19.1556C264.347 19.6918 264.61 20.1844 264.997 20.5709C265.515 21.0889 266.218 21.38 266.951 21.38C267.684 21.38 268.387 21.0889 268.905 20.5709Z" fill="white"/>
<path d="M268.698 20.3646C269.045 20.0188 269.28 19.5782 269.376 19.0983C269.472 18.6185 269.423 18.121 269.236 17.6689C269.049 17.2168 268.732 16.8303 268.325 16.5584C267.918 16.2865 267.44 16.1414 266.951 16.1414C266.462 16.1414 265.983 16.2865 265.577 16.5584C265.17 16.8303 264.853 17.2168 264.666 17.6689C264.479 18.121 264.43 18.6185 264.526 19.0983C264.621 19.5782 264.857 20.0188 265.203 20.3646C265.433 20.5942 265.705 20.7763 266.005 20.9006C266.305 21.0248 266.626 21.0888 266.951 21.0888C267.275 21.0888 267.597 21.0248 267.897 20.9006C268.197 20.7763 268.469 20.5942 268.698 20.3646Z" stroke="#42474B" stroke-width="0.5"/>
<path d="M268.254 19.9199L270.859 22.5245" stroke="#42474B" stroke-width="0.5"/>
<rect x="16" y="11" width="38" height="15" rx="2" fill="#CED0D3"/>
<path d="M29.4169 20.4405H27V16.0762H27.7245V19.8295H29.4169V20.4405ZM31.6606 20.5138C31.3793 20.5259 31.0987 20.4775 30.8377 20.372C30.5767 20.2664 30.3414 20.1061 30.1476 19.9018C29.7593 19.4648 29.5562 18.8938 29.5813 18.3098C29.55 17.696 29.7573 17.0939 30.1598 16.6295C30.3612 16.4183 30.6057 16.253 30.8768 16.1448C31.1478 16.0366 31.439 15.9881 31.7304 16.0025C32.0063 15.9913 32.2814 16.0398 32.5368 16.1449C32.7922 16.2499 33.0218 16.409 33.2099 16.6111C33.5963 17.0489 33.7975 17.6197 33.771 18.2031C33.8054 18.8191 33.6 19.4246 33.1978 19.8926C33.0011 20.1002 32.762 20.2631 32.4967 20.3701C32.2315 20.4772 31.9464 20.5265 31.6606 20.5138ZM31.6941 16.6382C31.5078 16.6332 31.3229 16.6709 31.1535 16.7485C30.9841 16.8261 30.8348 16.9415 30.717 17.0858C30.4551 17.4209 30.3222 17.8389 30.3426 18.2637C30.3221 18.6852 30.4515 19.1004 30.7077 19.4358C30.8216 19.579 30.9672 19.6938 31.1331 19.771C31.299 19.8482 31.4806 19.8857 31.6635 19.8804C31.8497 19.8891 32.0354 19.8556 32.2067 19.7823C32.378 19.7089 32.5305 19.5978 32.6528 19.4571C32.9126 19.1191 33.0412 18.6984 33.015 18.2729C33.0429 17.8411 32.9179 17.4134 32.662 17.0645C32.5447 16.9233 32.3962 16.8113 32.2283 16.7373C32.0603 16.6633 31.8774 16.6294 31.6941 16.6382ZM37.9802 20.1423C37.5136 20.3929 36.9909 20.5207 36.4614 20.5138C36.1727 20.5257 35.8847 20.4784 35.6151 20.3747C35.3454 20.2711 35.0999 20.1132 34.8936 19.911C34.6907 19.6996 34.533 19.4491 34.4299 19.1749C34.3267 18.9006 34.2804 18.6083 34.2938 18.3156C34.283 18.0084 34.3355 17.7023 34.4481 17.4163C34.5608 17.1303 34.731 16.8706 34.9484 16.6533C35.1678 16.4374 35.4288 16.2683 35.7156 16.1563C36.0024 16.0444 36.3089 15.9919 36.6165 16.002C37.0347 15.9898 37.451 16.0622 37.8405 16.2149V16.9607C37.4845 16.7313 37.0676 16.6145 36.6442 16.6256C36.432 16.6185 36.2206 16.6557 36.0235 16.7349C35.8265 16.814 35.6481 16.9334 35.4998 17.0853C35.3502 17.2442 35.2338 17.4314 35.1575 17.6358C35.0811 17.8402 35.0463 18.0578 35.0551 18.2758C35.0307 18.7046 35.1675 19.127 35.4387 19.46C35.5701 19.6036 35.7315 19.7165 35.9114 19.7906C36.0913 19.8648 36.2854 19.8984 36.4798 19.8892C36.7499 19.896 37.0175 19.8364 37.2591 19.7156V18.6778H36.3411V18.0692H37.9802V20.1423ZM40.7195 20.5138C40.4383 20.5258 40.1578 20.4775 39.8968 20.3719C39.6359 20.2663 39.4007 20.106 39.207 19.9018C38.8187 19.4648 38.6156 18.8938 38.6406 18.3098C38.6094 17.696 38.8167 17.094 39.2191 16.6295C39.4206 16.4183 39.6653 16.253 39.9364 16.1448C40.2075 16.0366 40.4987 15.988 40.7903 16.0025C41.0662 15.9912 41.3413 16.0398 41.5967 16.1448C41.852 16.2499 42.0817 16.4089 42.2698 16.6111C42.6571 17.0485 42.859 17.6194 42.8328 18.2031C42.8666 18.8195 42.6603 19.425 42.2572 19.8926C42.0605 20.1002 41.8214 20.2631 41.5561 20.3702C41.2909 20.4773 41.0057 20.5261 40.72 20.5133L40.7195 20.5138ZM40.7534 16.6382C40.5672 16.6332 40.3823 16.6709 40.2129 16.7485C40.0435 16.8261 39.8942 16.9415 39.7763 17.0858C39.5145 17.4209 39.3816 17.8389 39.402 18.2637C39.3814 18.6852 39.5108 19.1005 39.7671 19.4358C39.881 19.5791 40.0267 19.6939 40.1927 19.7711C40.3587 19.8483 40.5404 19.8857 40.7234 19.8804C40.9096 19.8891 41.0954 19.8555 41.2668 19.7822C41.4382 19.7089 41.5908 19.5978 41.7131 19.4571C41.9727 19.119 42.1012 18.6984 42.0749 18.2729C42.1025 17.8412 41.9777 17.4136 41.7223 17.0645C41.605 16.9233 41.4564 16.8113 41.2883 16.7373C41.1203 16.6633 40.9368 16.6294 40.7534 16.6382Z" fill="#42474B"/>
<path d="M77.8659 19.3464C78.2676 19.3464 78.5933 19.0207 78.5933 18.619C78.5933 18.2173 78.2676 17.8916 77.8659 17.8916C77.4642 17.8916 77.1385 18.2173 77.1385 18.619C77.1385 19.0207 77.4642 19.3464 77.8659 19.3464Z" fill="#216BDB"/>
<path d="M77.8659 19.1039C78.1337 19.1039 78.3508 18.8868 78.3508 18.619C78.3508 18.3511 78.1337 18.134 77.8659 18.134C77.5981 18.134 77.381 18.3511 77.381 18.619C77.381 18.8868 77.5981 19.1039 77.8659 19.1039Z" stroke="#216BDB"/>
<path d="M94.8382 19.3464C95.24 19.3464 95.5656 19.0207 95.5656 18.619C95.5656 18.2173 95.24 17.8916 94.8382 17.8916C94.4365 17.8916 94.1108 18.2173 94.1108 18.619C94.1108 19.0207 94.4365 19.3464 94.8382 19.3464Z" fill="#216BDB"/>
<path d="M94.8383 19.1039C95.1061 19.1039 95.3232 18.8868 95.3232 18.619C95.3232 18.3511 95.1061 18.134 94.8383 18.134C94.5704 18.134 94.3533 18.3511 94.3533 18.619C94.3533 18.8868 94.5704 19.1039 94.8383 19.1039Z" stroke="#216BDB"/>
</svg>
