<svg width="287" height="36" viewBox="0 0 287 36" fill="none" xmlns="http://www.w3.org/2000/svg">
<g clip-path="url(#clip0_510_109558)">
<rect x="1.5" y="1.49976" width="285" height="34" rx="3.5" stroke="#E0E3E7"/>
<path d="M92.5981 16.842C92.5981 15.7375 91.7027 14.842 90.5981 14.842H73.5936C72.489 14.842 71.5936 15.7375 71.5936 16.842V21.0086C71.5936 22.1131 72.489 23.0086 73.5936 23.0086H90.5981C91.7027 23.0086 92.5981 22.1131 92.5981 21.0086V16.842Z" fill="#216BDB"/>
<path d="M87.93 17.175H76.2612V20.6749H87.93V17.175Z" fill="white"/>
<path d="M111.269 18.9247C111.269 17.9584 110.485 17.175 109.519 17.175H101.35C100.383 17.175 99.5997 17.9585 99.5997 18.925C99.5997 19.8914 100.383 20.6749 101.35 20.6749H109.519C110.485 20.6749 111.269 19.8913 111.269 18.9247Z" fill="#CED0D3"/>
<path d="M129.939 18.925C129.939 17.9585 129.156 17.175 128.189 17.175H120.02C119.054 17.175 118.27 17.9585 118.27 18.925C118.27 19.8914 119.054 20.6749 120.02 20.6749H128.189C129.156 20.6749 129.939 19.8914 129.939 18.925Z" fill="#CED0D3"/>
<path d="M148.61 18.925C148.61 17.9585 147.826 17.175 146.86 17.175H138.691C137.724 17.175 136.941 17.9585 136.941 18.925C136.941 19.8914 137.724 20.6749 138.691 20.6749H146.86C147.826 20.6749 148.61 19.8914 148.61 18.925Z" fill="#CED0D3"/>
<path d="M167.28 18.925C167.28 17.9585 166.497 17.175 165.53 17.175H157.361C156.395 17.175 155.611 17.9585 155.611 18.925C155.611 19.8914 156.395 20.6749 157.361 20.6749H165.53C166.497 20.6749 167.28 19.8914 167.28 18.925Z" fill="#CED0D3"/>
<path d="M185.951 18.925C185.951 17.9585 185.167 17.175 184.201 17.175H176.032C175.066 17.175 174.282 17.9585 174.282 18.925C174.282 19.8914 175.066 20.6749 176.032 20.6749H184.201C185.167 20.6749 185.951 19.8914 185.951 18.925Z" fill="#CED0D3"/>
<path d="M204.622 18.925C204.622 17.9585 203.838 17.175 202.872 17.175H194.702C193.736 17.175 192.953 17.9585 192.953 18.925C192.953 19.8914 193.736 20.6749 194.702 20.6749H202.872C203.838 20.6749 204.622 19.8914 204.622 18.925Z" fill="#CED0D3"/>
<path opacity="0.3" d="M254.799 16.842C254.799 15.7375 253.903 14.842 252.799 14.842H219.458C218.353 14.842 217.458 15.7375 217.458 16.842V22.1749C217.458 23.2794 218.353 24.1749 219.458 24.1749H252.799C253.903 24.1749 254.799 23.2794 254.799 22.1749V16.842Z" fill="#42474B"/>
<path d="M248.964 19.3418C248.964 18.7895 248.517 18.3418 247.964 18.3418H224.292C223.74 18.3418 223.292 18.7895 223.292 19.3418V19.6749C223.292 20.2272 223.74 20.6749 224.292 20.6749H247.964C248.517 20.6749 248.964 20.2272 248.964 19.6749V19.3418Z" fill="white"/>
<path d="M269.288 20.7002C269.674 20.3139 269.938 19.8215 270.044 19.2855C270.151 18.7495 270.097 18.1939 269.887 17.6889C269.678 17.1839 269.324 16.7523 268.87 16.4487C268.415 16.145 267.881 15.9829 267.335 15.9829C266.788 15.9829 266.254 16.145 265.799 16.4487C265.345 16.7523 264.991 17.1839 264.782 17.6889C264.573 18.1939 264.518 18.7495 264.625 19.2855C264.731 19.8215 264.995 20.3139 265.381 20.7002C265.899 21.2181 266.602 21.509 267.335 21.509C268.067 21.509 268.77 21.2181 269.288 20.7002Z" fill="white"/>
<path d="M269.081 20.4941C269.428 20.1485 269.663 19.708 269.759 19.2284C269.855 18.7487 269.806 18.2514 269.619 17.7995C269.432 17.3475 269.115 16.9612 268.709 16.6894C268.302 16.4175 267.824 16.2725 267.335 16.2725C266.846 16.2725 266.367 16.4175 265.961 16.6894C265.554 16.9612 265.237 17.3475 265.05 17.7995C264.863 18.2514 264.815 18.7487 264.91 19.2284C265.006 19.708 265.242 20.1485 265.588 20.4941C265.817 20.7236 266.089 20.9057 266.389 21.0299C266.689 21.1541 267.01 21.2181 267.335 21.2181C267.659 21.2181 267.98 21.1541 268.28 21.0299C268.58 20.9057 268.852 20.7236 269.081 20.4941Z" stroke="#42474B" stroke-width="0.5"/>
<path d="M268.637 20.0496L271.241 22.6531" stroke="#42474B" stroke-width="0.5"/>
<rect x="16" y="11" width="38" height="15" rx="2" fill="#CED0D3"/>
<path d="M29.4169 20.4405H27V16.0762H27.7245V19.8295H29.4169V20.4405ZM31.6606 20.5138C31.3793 20.5259 31.0987 20.4775 30.8377 20.372C30.5767 20.2664 30.3414 20.1061 30.1476 19.9018C29.7593 19.4648 29.5562 18.8938 29.5813 18.3098C29.55 17.696 29.7573 17.0939 30.1598 16.6295C30.3612 16.4183 30.6057 16.253 30.8768 16.1448C31.1478 16.0366 31.439 15.9881 31.7304 16.0025C32.0063 15.9913 32.2814 16.0398 32.5368 16.1449C32.7922 16.2499 33.0218 16.409 33.2099 16.6111C33.5963 17.0489 33.7975 17.6197 33.771 18.2031C33.8054 18.8191 33.6 19.4246 33.1978 19.8926C33.0011 20.1002 32.762 20.2631 32.4967 20.3701C32.2315 20.4772 31.9464 20.5265 31.6606 20.5138ZM31.6941 16.6382C31.5078 16.6332 31.3229 16.6709 31.1535 16.7485C30.9841 16.8261 30.8348 16.9415 30.717 17.0858C30.4551 17.4209 30.3222 17.8389 30.3426 18.2637C30.3221 18.6852 30.4515 19.1004 30.7077 19.4358C30.8216 19.579 30.9672 19.6938 31.1331 19.771C31.299 19.8482 31.4806 19.8857 31.6635 19.8804C31.8497 19.8891 32.0354 19.8556 32.2067 19.7823C32.378 19.7089 32.5305 19.5978 32.6528 19.4571C32.9126 19.1191 33.0412 18.6984 33.015 18.2729C33.0429 17.8411 32.9179 17.4134 32.662 17.0645C32.5447 16.9233 32.3962 16.8113 32.2283 16.7373C32.0603 16.6633 31.8774 16.6294 31.6941 16.6382ZM37.9802 20.1423C37.5136 20.3929 36.9909 20.5207 36.4614 20.5138C36.1727 20.5257 35.8847 20.4784 35.6151 20.3747C35.3454 20.2711 35.0999 20.1132 34.8936 19.911C34.6907 19.6996 34.533 19.4491 34.4299 19.1749C34.3267 18.9006 34.2804 18.6083 34.2938 18.3156C34.283 18.0084 34.3355 17.7023 34.4481 17.4163C34.5608 17.1303 34.731 16.8706 34.9484 16.6533C35.1678 16.4374 35.4288 16.2683 35.7156 16.1563C36.0024 16.0444 36.3089 15.9919 36.6165 16.002C37.0347 15.9898 37.451 16.0622 37.8405 16.2149V16.9607C37.4845 16.7313 37.0676 16.6145 36.6442 16.6256C36.432 16.6185 36.2206 16.6557 36.0235 16.7349C35.8265 16.814 35.6481 16.9334 35.4998 17.0853C35.3502 17.2442 35.2338 17.4314 35.1575 17.6358C35.0811 17.8402 35.0463 18.0578 35.0551 18.2758C35.0307 18.7046 35.1675 19.127 35.4387 19.46C35.5701 19.6036 35.7315 19.7165 35.9114 19.7906C36.0913 19.8648 36.2854 19.8984 36.4798 19.8892C36.7499 19.896 37.0175 19.8364 37.2591 19.7156V18.6778H36.3411V18.0692H37.9802V20.1423ZM40.7195 20.5138C40.4383 20.5258 40.1578 20.4775 39.8968 20.3719C39.6359 20.2663 39.4007 20.106 39.207 19.9018C38.8187 19.4648 38.6156 18.8938 38.6406 18.3098C38.6094 17.696 38.8167 17.094 39.2191 16.6295C39.4206 16.4183 39.6653 16.253 39.9364 16.1448C40.2075 16.0366 40.4987 15.988 40.7903 16.0025C41.0662 15.9912 41.3413 16.0398 41.5967 16.1448C41.852 16.2499 42.0817 16.4089 42.2698 16.6111C42.6571 17.0485 42.859 17.6194 42.8328 18.2031C42.8666 18.8195 42.6603 19.425 42.2572 19.8926C42.0605 20.1002 41.8214 20.2631 41.5561 20.3702C41.2909 20.4773 41.0057 20.5261 40.72 20.5133L40.7195 20.5138ZM40.7534 16.6382C40.5672 16.6332 40.3823 16.6709 40.2129 16.7485C40.0435 16.8261 39.8942 16.9415 39.7763 17.0858C39.5145 17.4209 39.3816 17.8389 39.402 18.2637C39.3814 18.6852 39.5108 19.1005 39.7671 19.4358C39.881 19.5791 40.0267 19.6939 40.1927 19.7711C40.3587 19.8483 40.5404 19.8857 40.7234 19.8804C40.9096 19.8891 41.0954 19.8555 41.2668 19.7822C41.4382 19.7089 41.5908 19.5978 41.7131 19.4571C41.9727 19.119 42.1012 18.6984 42.0749 18.2729C42.1025 17.8412 41.9777 17.4136 41.7223 17.0645C41.605 16.9233 41.4564 16.8113 41.2883 16.7373C41.1203 16.6633 40.9368 16.6294 40.7534 16.6382Z" fill="#42474B"/>
</g>
<defs>
<clipPath id="clip0_510_109558">
<rect width="286" height="34.9986" fill="white" transform="translate(0.5177 0.842529)"/>
</clipPath>
</defs>
</svg>
