<svg width="287" height="35" viewBox="0 0 287 35" fill="none" xmlns="http://www.w3.org/2000/svg">
<g clip-path="url(#clip0_1746_2712)">
<path d="M92.6883 16.7192H81.0152V20.1192H92.6883V16.7192Z" fill="#216BDB"/>
<path opacity="0.3" d="M111.309 16.7192H99.6359V20.1192H111.309V16.7192Z" fill="#717578"/>
<path opacity="0.3" d="M129.988 16.7192H118.314V20.1192H129.988V16.7192Z" fill="#717578"/>
<path opacity="0.3" d="M148.665 16.7192H136.991V20.1192H148.665V16.7192Z" fill="#717578"/>
<path opacity="0.3" d="M167.342 16.7192H155.668V20.1192H167.342V16.7192Z" fill="#717578"/>
<path opacity="0.3" d="M186.019 16.7192H174.346V20.1192H186.019V16.7192Z" fill="#717578"/>
<path opacity="0.3" d="M204.697 16.7192H193.024V20.1192H204.697V16.7192Z" fill="#717578"/>
<path opacity="0.3" d="M254.893 15.4526C254.893 14.9004 254.445 14.4526 253.893 14.4526H218.538C217.986 14.4526 217.538 14.9004 217.538 15.4526V22.5191C217.538 23.0714 217.986 23.5191 218.538 23.5191H253.893C254.445 23.5191 254.893 23.0714 254.893 22.5191V15.4526Z" fill="#717578"/>
<path d="M249.056 17.8528H223.375V20.1193H249.056V17.8528Z" fill="white"/>
<path d="M269.387 20.1437C269.774 19.7684 270.037 19.2901 270.144 18.7694C270.251 18.2487 270.196 17.7089 269.987 17.2184C269.778 16.7278 269.424 16.3085 268.969 16.0135C268.514 15.7185 267.98 15.561 267.433 15.561C266.887 15.561 266.352 15.7185 265.897 16.0135C265.443 16.3085 265.089 16.7278 264.879 17.2184C264.67 17.7089 264.616 18.2487 264.722 18.7694C264.829 19.2901 265.093 19.7684 265.479 20.1437C265.998 20.6468 266.7 20.9295 267.433 20.9295C268.166 20.9295 268.869 20.6468 269.387 20.1437Z" fill="white"/>
<path d="M269.181 19.9437C269.527 19.608 269.763 19.1801 269.859 18.7141C269.954 18.2481 269.906 17.765 269.718 17.326C269.531 16.8869 269.214 16.5116 268.808 16.2475C268.401 15.9835 267.923 15.8425 267.433 15.8425C266.944 15.8425 266.466 15.9835 266.059 16.2475C265.652 16.5116 265.335 16.8869 265.148 17.326C264.961 17.765 264.912 18.2481 265.008 18.7141C265.104 19.1801 265.34 19.608 265.686 19.9437C265.915 20.1667 266.188 20.3436 266.487 20.4642C266.787 20.5849 267.109 20.647 267.433 20.647C267.758 20.647 268.079 20.5849 268.379 20.4642C268.679 20.3436 268.951 20.1667 269.181 19.9437Z" stroke="#717578" stroke-width="0.235457"/>
<path d="M268.737 19.512L271.342 22.0412" stroke="#717578" stroke-width="0.235457"/>
<rect x="16" y="11" width="38" height="15" rx="2" fill="#CED0D3"/>
<path d="M29.4169 20.4405H27V16.0762H27.7245V19.8295H29.4169V20.4405ZM31.6606 20.5138C31.3793 20.5259 31.0987 20.4775 30.8377 20.372C30.5767 20.2664 30.3414 20.1061 30.1476 19.9018C29.7593 19.4648 29.5562 18.8938 29.5813 18.3098C29.55 17.696 29.7573 17.0939 30.1598 16.6295C30.3612 16.4183 30.6057 16.253 30.8768 16.1448C31.1478 16.0366 31.439 15.9881 31.7304 16.0025C32.0063 15.9913 32.2814 16.0398 32.5368 16.1449C32.7922 16.2499 33.0218 16.409 33.2099 16.6111C33.5963 17.0489 33.7975 17.6197 33.771 18.2031C33.8054 18.8191 33.6 19.4246 33.1978 19.8926C33.0011 20.1002 32.762 20.2631 32.4967 20.3701C32.2315 20.4772 31.9464 20.5265 31.6606 20.5138ZM31.6941 16.6382C31.5078 16.6332 31.3229 16.6709 31.1535 16.7485C30.9841 16.8261 30.8348 16.9415 30.717 17.0858C30.4551 17.4209 30.3222 17.8389 30.3426 18.2637C30.3221 18.6852 30.4515 19.1004 30.7077 19.4358C30.8216 19.579 30.9672 19.6938 31.1331 19.771C31.299 19.8482 31.4806 19.8857 31.6635 19.8804C31.8497 19.8891 32.0354 19.8556 32.2067 19.7823C32.378 19.7089 32.5305 19.5978 32.6528 19.4571C32.9126 19.1191 33.0412 18.6984 33.015 18.2729C33.0429 17.8411 32.9179 17.4134 32.662 17.0645C32.5447 16.9233 32.3962 16.8113 32.2283 16.7373C32.0603 16.6633 31.8774 16.6294 31.6941 16.6382ZM37.9802 20.1423C37.5136 20.3929 36.9909 20.5207 36.4614 20.5138C36.1727 20.5257 35.8847 20.4784 35.6151 20.3747C35.3454 20.2711 35.0999 20.1132 34.8936 19.911C34.6907 19.6996 34.533 19.4491 34.4299 19.1749C34.3267 18.9006 34.2804 18.6083 34.2938 18.3156C34.283 18.0084 34.3355 17.7023 34.4481 17.4163C34.5608 17.1303 34.731 16.8706 34.9484 16.6533C35.1678 16.4374 35.4288 16.2683 35.7156 16.1563C36.0024 16.0444 36.3089 15.9919 36.6165 16.002C37.0347 15.9898 37.451 16.0622 37.8405 16.2149V16.9607C37.4845 16.7313 37.0676 16.6145 36.6442 16.6256C36.432 16.6185 36.2206 16.6557 36.0235 16.7349C35.8265 16.814 35.6481 16.9334 35.4998 17.0853C35.3502 17.2442 35.2338 17.4314 35.1575 17.6358C35.0811 17.8402 35.0463 18.0578 35.0551 18.2758C35.0307 18.7046 35.1675 19.127 35.4387 19.46C35.5701 19.6036 35.7315 19.7165 35.9114 19.7906C36.0913 19.8648 36.2854 19.8984 36.4798 19.8892C36.7499 19.896 37.0175 19.8364 37.2591 19.7156V18.6778H36.3411V18.0692H37.9802V20.1423ZM40.7195 20.5138C40.4383 20.5258 40.1578 20.4775 39.8968 20.3719C39.6359 20.2663 39.4007 20.106 39.207 19.9018C38.8187 19.4648 38.6156 18.8938 38.6406 18.3098C38.6094 17.696 38.8167 17.094 39.2191 16.6295C39.4206 16.4183 39.6653 16.253 39.9364 16.1448C40.2075 16.0366 40.4987 15.988 40.7903 16.0025C41.0662 15.9912 41.3413 16.0398 41.5967 16.1448C41.852 16.2499 42.0817 16.4089 42.2698 16.6111C42.6571 17.0485 42.859 17.6194 42.8328 18.2031C42.8666 18.8195 42.6603 19.425 42.2572 19.8926C42.0605 20.1002 41.8214 20.2631 41.5561 20.3702C41.2909 20.4773 41.0057 20.5261 40.72 20.5133L40.7195 20.5138ZM40.7534 16.6382C40.5672 16.6332 40.3823 16.6709 40.2129 16.7485C40.0435 16.8261 39.8942 16.9415 39.7763 17.0858C39.5145 17.4209 39.3816 17.8389 39.402 18.2637C39.3814 18.6852 39.5108 19.1005 39.7671 19.4358C39.881 19.5791 40.0267 19.6939 40.1927 19.7711C40.3587 19.8483 40.5404 19.8857 40.7234 19.8804C40.9096 19.8891 41.0954 19.8555 41.2668 19.7822C41.4382 19.7089 41.5908 19.5978 41.7131 19.4571C41.9727 19.119 42.1012 18.6984 42.0749 18.2729C42.1025 17.8412 41.9777 17.4136 41.7223 17.0645C41.605 16.9233 41.4564 16.8113 41.2883 16.7373C41.1203 16.6633 40.9368 16.6294 40.7534 16.6382Z" fill="#42474B"/>
<path d="M79.6303 17.8528H77.1024V18.9858H79.6303V17.8528Z" fill="#216BDB"/>
<path d="M96.6026 17.8528H94.0747V18.9858H96.6026V17.8528Z" fill="#216BDB"/>
</g>
<rect x="0.8177" y="1.15278" width="285.4" height="33.4" rx="1.7" stroke="#CED0D3" stroke-width="0.6"/>
<defs>
<clipPath id="clip0_1746_2712">
<rect x="0.5177" y="0.852783" width="286" height="34" rx="2" fill="white"/>
</clipPath>
</defs>
</svg>
