<svg width="287" height="36" viewBox="0 0 287 36" fill="none" xmlns="http://www.w3.org/2000/svg">
<rect x="1.0177" y="1.34253" width="285" height="34" rx="3.5" stroke="#E0E3E7"/>
<path d="M87.48 18.7745C87.48 17.8077 86.6962 17.0239 85.7294 17.0239H77.5575C76.5906 17.0239 75.8069 17.8077 75.8069 18.7745C75.8069 19.7413 76.5906 20.5251 77.5575 20.5251H85.7294C86.6962 20.5251 87.48 19.7413 87.48 18.7745Z" fill="#216BDB"/>
<path d="M110.827 18.7745C110.827 17.8077 110.043 17.0239 109.077 17.0239H100.904C99.9373 17.0239 99.1536 17.8077 99.1536 18.7745C99.1536 19.7413 99.9373 20.5251 100.904 20.5251H109.077C110.043 20.5251 110.827 19.7413 110.827 18.7745Z" fill="#CED0D3"/>
<path d="M129.506 18.7745C129.506 17.8077 128.722 17.0239 127.755 17.0239H119.582C118.615 17.0239 117.831 17.8077 117.831 18.7745C117.831 19.7413 118.615 20.5251 119.582 20.5251H127.755C128.722 20.5251 129.506 19.7413 129.506 18.7745Z" fill="#CED0D3"/>
<path d="M148.182 18.7745C148.182 17.8077 147.399 17.0239 146.432 17.0239H138.259C137.293 17.0239 136.509 17.8077 136.509 18.7745C136.509 19.7413 137.293 20.5251 138.259 20.5251H146.432C147.399 20.5251 148.182 19.7413 148.182 18.7745Z" fill="#CED0D3"/>
<path d="M166.86 18.7745C166.86 17.8077 166.076 17.0239 165.109 17.0239H156.937C155.97 17.0239 155.186 17.8077 155.186 18.7745C155.186 19.7413 155.97 20.5251 156.937 20.5251H165.109C166.076 20.5251 166.86 19.7413 166.86 18.7745Z" fill="#CED0D3"/>
<path d="M185.537 18.7745C185.537 17.8077 184.753 17.0239 183.787 17.0239H175.614C174.647 17.0239 173.864 17.8077 173.864 18.7745C173.864 19.7413 174.647 20.5251 175.614 20.5251H183.787C184.753 20.5251 185.537 19.7413 185.537 18.7745Z" fill="#CED0D3"/>
<path d="M204.215 18.7745C204.215 17.8077 203.431 17.0239 202.464 17.0239H194.292C193.325 17.0239 192.541 17.8077 192.541 18.7745C192.541 19.7413 193.325 20.5251 194.292 20.5251H202.464C203.431 20.5251 204.215 19.7413 204.215 18.7745Z" fill="#CED0D3"/>
<path opacity="0.3" d="M254.411 16.6899C254.411 15.5854 253.515 14.6899 252.411 14.6899H219.056C217.951 14.6899 217.056 15.5854 217.056 16.6899V22.0262C217.056 23.1308 217.951 24.0262 219.056 24.0262H252.411C253.515 24.0262 254.411 23.1308 254.411 22.0262V16.6899Z" fill="#42474B"/>
<path d="M248.574 19.1912C248.574 18.6389 248.126 18.1912 247.574 18.1912H223.892C223.34 18.1912 222.892 18.6389 222.892 19.1912V19.5251C222.892 20.0774 223.34 20.5251 223.892 20.5251H247.574C248.126 20.5251 248.574 20.0774 248.574 19.5251V19.1912Z" fill="white"/>
<path d="M268.904 20.5504C269.291 20.1639 269.555 19.6714 269.662 19.1351C269.768 18.5989 269.714 18.043 269.505 17.5378C269.295 17.0327 268.941 16.6008 268.487 16.297C268.032 15.9932 267.497 15.8311 266.951 15.8311C266.404 15.8311 265.869 15.9932 265.415 16.297C264.96 16.6008 264.606 17.0327 264.397 17.5378C264.188 18.043 264.133 18.5989 264.24 19.1351C264.347 19.6714 264.61 20.1639 264.997 20.5504C265.253 20.8071 265.558 21.0109 265.893 21.1499C266.228 21.2889 266.588 21.3604 266.951 21.3604C267.314 21.3604 267.673 21.2889 268.008 21.1499C268.343 21.0109 268.648 20.8071 268.904 20.5504Z" fill="white"/>
<path d="M268.698 20.3441C269.045 19.9983 269.28 19.5577 269.376 19.0778C269.472 18.598 269.423 18.1005 269.236 17.6484C269.049 17.1963 268.732 16.8098 268.325 16.5379C267.918 16.266 267.44 16.1208 266.951 16.1208C266.462 16.1208 265.983 16.266 265.577 16.5379C265.17 16.8098 264.853 17.1963 264.666 17.6484C264.479 18.1005 264.43 18.598 264.526 19.0778C264.621 19.5577 264.857 19.9983 265.203 20.3441C265.433 20.5737 265.705 20.7558 266.005 20.8801C266.305 21.0043 266.626 21.0683 266.951 21.0683C267.275 21.0683 267.597 21.0043 267.897 20.8801C268.197 20.7558 268.469 20.5737 268.698 20.3441Z" stroke="#42474B" stroke-width="0.5"/>
<path d="M268.254 19.8994L270.859 22.5039" stroke="#42474B" stroke-width="0.5"/>
<rect x="15" y="11" width="38" height="15" rx="2" fill="#CED0D3"/>
<path d="M28.4169 20.4405H26V16.0762H26.7245V19.8295H28.4169V20.4405ZM30.6606 20.5138C30.3793 20.5259 30.0987 20.4775 29.8377 20.372C29.5767 20.2664 29.3414 20.1061 29.1476 19.9018C28.7593 19.4648 28.5562 18.8938 28.5813 18.3098C28.55 17.696 28.7573 17.0939 29.1598 16.6295C29.3612 16.4183 29.6057 16.253 29.8768 16.1448C30.1478 16.0366 30.439 15.9881 30.7304 16.0025C31.0063 15.9913 31.2814 16.0398 31.5368 16.1449C31.7922 16.2499 32.0218 16.409 32.2099 16.6111C32.5963 17.0489 32.7975 17.6197 32.771 18.2031C32.8054 18.8191 32.6 19.4246 32.1978 19.8926C32.0011 20.1002 31.762 20.2631 31.4967 20.3701C31.2315 20.4772 30.9464 20.5265 30.6606 20.5138ZM30.6941 16.6382C30.5078 16.6332 30.3229 16.6709 30.1535 16.7485C29.9841 16.8261 29.8348 16.9415 29.717 17.0858C29.4551 17.4209 29.3222 17.8389 29.3426 18.2637C29.3221 18.6852 29.4515 19.1004 29.7077 19.4358C29.8216 19.579 29.9672 19.6938 30.1331 19.771C30.299 19.8482 30.4806 19.8857 30.6635 19.8804C30.8497 19.8891 31.0354 19.8556 31.2067 19.7823C31.378 19.7089 31.5305 19.5978 31.6528 19.4571C31.9126 19.1191 32.0412 18.6984 32.015 18.2729C32.0429 17.8411 31.9179 17.4134 31.662 17.0645C31.5447 16.9233 31.3962 16.8113 31.2283 16.7373C31.0603 16.6633 30.8774 16.6294 30.6941 16.6382ZM36.9802 20.1423C36.5136 20.3929 35.9909 20.5207 35.4614 20.5138C35.1727 20.5257 34.8847 20.4784 34.6151 20.3747C34.3454 20.2711 34.0999 20.1132 33.8936 19.911C33.6907 19.6996 33.533 19.4491 33.4299 19.1749C33.3267 18.9006 33.2804 18.6083 33.2938 18.3156C33.283 18.0084 33.3355 17.7023 33.4481 17.4163C33.5608 17.1303 33.731 16.8706 33.9484 16.6533C34.1678 16.4374 34.4288 16.2683 34.7156 16.1563C35.0024 16.0444 35.3089 15.9919 35.6165 16.002C36.0347 15.9898 36.451 16.0622 36.8405 16.2149V16.9607C36.4845 16.7313 36.0676 16.6145 35.6442 16.6256C35.432 16.6185 35.2206 16.6557 35.0235 16.7349C34.8265 16.814 34.6481 16.9334 34.4998 17.0853C34.3502 17.2442 34.2338 17.4314 34.1575 17.6358C34.0811 17.8402 34.0463 18.0578 34.0551 18.2758C34.0307 18.7046 34.1675 19.127 34.4387 19.46C34.5701 19.6036 34.7315 19.7165 34.9114 19.7906C35.0913 19.8648 35.2854 19.8984 35.4798 19.8892C35.7499 19.896 36.0175 19.8364 36.2591 19.7156V18.6778H35.3411V18.0692H36.9802V20.1423ZM39.7195 20.5138C39.4383 20.5258 39.1578 20.4775 38.8968 20.3719C38.6359 20.2663 38.4007 20.106 38.207 19.9018C37.8187 19.4648 37.6156 18.8938 37.6406 18.3098C37.6094 17.696 37.8167 17.094 38.2191 16.6295C38.4206 16.4183 38.6653 16.253 38.9364 16.1448C39.2075 16.0366 39.4987 15.988 39.7903 16.0025C40.0662 15.9912 40.3413 16.0398 40.5967 16.1448C40.852 16.2499 41.0817 16.4089 41.2698 16.6111C41.6571 17.0485 41.859 17.6194 41.8328 18.2031C41.8666 18.8195 41.6603 19.425 41.2572 19.8926C41.0605 20.1002 40.8214 20.2631 40.5561 20.3702C40.2909 20.4773 40.0057 20.5261 39.72 20.5133L39.7195 20.5138ZM39.7534 16.6382C39.5672 16.6332 39.3823 16.6709 39.2129 16.7485C39.0435 16.8261 38.8942 16.9415 38.7763 17.0858C38.5145 17.4209 38.3816 17.8389 38.402 18.2637C38.3814 18.6852 38.5108 19.1005 38.7671 19.4358C38.881 19.5791 39.0267 19.6939 39.1927 19.7711C39.3587 19.8483 39.5404 19.8857 39.7234 19.8804C39.9096 19.8891 40.0954 19.8555 40.2668 19.7822C40.4382 19.7089 40.5908 19.5978 40.7131 19.4571C40.9727 19.119 41.1012 18.6984 41.0749 18.2729C41.1025 17.8412 40.9777 17.4136 40.7223 17.0645C40.605 16.9233 40.4564 16.8113 40.2883 16.7373C40.1203 16.6633 39.9368 16.6294 39.7534 16.6382Z" fill="#42474B"/>
<path opacity="0.9" d="M89.8149 24.0261H73.4729V25.1933H89.8149V24.0261Z" fill="#216BDB"/>
</svg>
