<svg width="287" height="36" viewBox="0 0 287 36" fill="none" xmlns="http://www.w3.org/2000/svg">
<g clip-path="url(#clip0_510_109577)">
<rect x="1.5" y="1.5" width="285" height="34" rx="3.5" stroke="#E0E3E7"/>
<path opacity="0.2" d="M92.6321 2.00854H71.6198V35.8529H92.6321V2.00854Z" fill="#216BDB"/>
<path d="M87.9623 18.9305C87.9623 17.9637 87.1785 17.1799 86.2117 17.1799H78.0398C77.0729 17.1799 76.2892 17.9637 76.2892 18.9305C76.2892 19.8973 77.0729 20.6811 78.0398 20.6811H86.2117C87.1785 20.6811 87.9623 19.8973 87.9623 18.9305Z" fill="#216BDB"/>
<path d="M111.309 18.9305C111.309 17.9637 110.526 17.1799 109.559 17.1799H101.386C100.42 17.1799 99.6359 17.9637 99.6359 18.9305C99.6359 19.8973 100.42 20.6811 101.386 20.6811H109.559C110.526 20.6811 111.309 19.8973 111.309 18.9305Z" fill="#CED0D3"/>
<path d="M129.988 18.9305C129.988 17.9637 129.205 17.1799 128.238 17.1799H120.064C119.097 17.1799 118.314 17.9637 118.314 18.9305C118.314 19.8973 119.097 20.6811 120.064 20.6811H128.238C129.205 20.6811 129.988 19.8973 129.988 18.9305Z" fill="#CED0D3"/>
<path d="M148.665 18.9305C148.665 17.9637 147.881 17.1799 146.914 17.1799H138.742C137.775 17.1799 136.991 17.9637 136.991 18.9305C136.991 19.8973 137.775 20.6811 138.742 20.6811H146.914C147.881 20.6811 148.665 19.8973 148.665 18.9305Z" fill="#CED0D3"/>
<path d="M167.342 18.9305C167.342 17.9637 166.558 17.1799 165.591 17.1799H157.419C156.452 17.1799 155.668 17.9637 155.668 18.9305C155.668 19.8973 156.452 20.6811 157.419 20.6811H165.591C166.558 20.6811 167.342 19.8973 167.342 18.9305Z" fill="#CED0D3"/>
<path d="M186.019 18.9305C186.019 17.9637 185.236 17.1799 184.269 17.1799H176.097C175.13 17.1799 174.346 17.9637 174.346 18.9305C174.346 19.8973 175.13 20.6811 176.097 20.6811H184.269C185.236 20.6811 186.019 19.8973 186.019 18.9305Z" fill="#CED0D3"/>
<path d="M204.697 18.9305C204.697 17.9637 203.914 17.1799 202.947 17.1799H194.774C193.807 17.1799 193.024 17.9637 193.024 18.9305C193.024 19.8973 193.807 20.6811 194.774 20.6811H202.947C203.914 20.6811 204.697 19.8973 204.697 18.9305Z" fill="#CED0D3"/>
<path opacity="0.3" d="M254.893 16.8459C254.893 15.7414 253.997 14.8459 252.893 14.8459H219.538C218.434 14.8459 217.538 15.7414 217.538 16.8459V22.1822C217.538 23.2868 218.434 24.1822 219.538 24.1822H252.893C253.997 24.1822 254.893 23.2868 254.893 22.1822V16.8459Z" fill="#42474B"/>
<path d="M249.056 19.3472C249.056 18.7949 248.609 18.3472 248.056 18.3472H224.375C223.822 18.3472 223.375 18.7949 223.375 19.3472V19.6811C223.375 20.2334 223.822 20.6811 224.375 20.6811H248.056C248.609 20.6811 249.056 20.2334 249.056 19.6811V19.3472Z" fill="white"/>
<path d="M269.387 20.7064C269.774 20.3199 270.037 19.8273 270.144 19.2911C270.251 18.7549 270.196 18.1991 269.987 17.6939C269.778 17.1888 269.424 16.757 268.969 16.4532C268.514 16.1494 267.98 15.9873 267.433 15.9873C266.887 15.9873 266.352 16.1494 265.897 16.4532C265.443 16.757 265.089 17.1888 264.879 17.6939C264.67 18.1991 264.616 18.7549 264.722 19.2911C264.829 19.8273 265.093 20.3199 265.479 20.7064C265.998 21.2244 266.7 21.5154 267.433 21.5154C268.166 21.5154 268.869 21.2244 269.387 20.7064Z" fill="white"/>
<path d="M269.181 20.5001C269.527 20.1543 269.763 19.7137 269.859 19.2338C269.954 18.754 269.906 18.2565 269.718 17.8044C269.531 17.3523 269.214 16.9658 268.808 16.6939C268.401 16.422 267.923 16.2769 267.433 16.2769C266.944 16.2769 266.466 16.422 266.059 16.6939C265.652 16.9658 265.335 17.3523 265.148 17.8044C264.961 18.2565 264.912 18.754 265.008 19.2338C265.104 19.7137 265.34 20.1543 265.686 20.5001C265.915 20.7297 266.188 20.9118 266.487 21.0361C266.787 21.1603 267.109 21.2243 267.433 21.2243C267.758 21.2243 268.079 21.1603 268.379 21.0361C268.679 20.9118 268.951 20.7297 269.181 20.5001Z" stroke="#42474B" stroke-width="0.5"/>
<path d="M268.736 20.0554L271.341 22.66" stroke="#42474B" stroke-width="0.5"/>
<rect x="16" y="11" width="38" height="15" rx="2" fill="#CED0D3"/>
<path d="M29.4169 20.4405H27V16.0762H27.7245V19.8295H29.4169V20.4405ZM31.6606 20.5138C31.3793 20.5259 31.0987 20.4775 30.8377 20.372C30.5767 20.2664 30.3414 20.1061 30.1476 19.9018C29.7593 19.4648 29.5562 18.8938 29.5813 18.3098C29.55 17.696 29.7573 17.0939 30.1598 16.6295C30.3612 16.4183 30.6057 16.253 30.8768 16.1448C31.1478 16.0366 31.439 15.9881 31.7304 16.0025C32.0063 15.9913 32.2814 16.0398 32.5368 16.1449C32.7922 16.2499 33.0218 16.409 33.2099 16.6111C33.5963 17.0489 33.7975 17.6197 33.771 18.2031C33.8054 18.8191 33.6 19.4246 33.1978 19.8926C33.0011 20.1002 32.762 20.2631 32.4967 20.3701C32.2315 20.4772 31.9464 20.5265 31.6606 20.5138ZM31.6941 16.6382C31.5078 16.6332 31.3229 16.6709 31.1535 16.7485C30.9841 16.8261 30.8348 16.9415 30.717 17.0858C30.4551 17.4209 30.3222 17.8389 30.3426 18.2637C30.3221 18.6852 30.4515 19.1004 30.7077 19.4358C30.8216 19.579 30.9672 19.6938 31.1331 19.771C31.299 19.8482 31.4806 19.8857 31.6635 19.8804C31.8497 19.8891 32.0354 19.8556 32.2067 19.7823C32.378 19.7089 32.5305 19.5978 32.6528 19.4571C32.9126 19.1191 33.0412 18.6984 33.015 18.2729C33.0429 17.8411 32.9179 17.4134 32.662 17.0645C32.5447 16.9233 32.3962 16.8113 32.2283 16.7373C32.0603 16.6633 31.8774 16.6294 31.6941 16.6382ZM37.9802 20.1423C37.5136 20.3929 36.9909 20.5207 36.4614 20.5138C36.1727 20.5257 35.8847 20.4784 35.6151 20.3747C35.3454 20.2711 35.0999 20.1132 34.8936 19.911C34.6907 19.6996 34.533 19.4491 34.4299 19.1749C34.3267 18.9006 34.2804 18.6083 34.2938 18.3156C34.283 18.0084 34.3355 17.7023 34.4481 17.4163C34.5608 17.1303 34.731 16.8706 34.9484 16.6533C35.1678 16.4374 35.4288 16.2683 35.7156 16.1563C36.0024 16.0444 36.3089 15.9919 36.6165 16.002C37.0347 15.9898 37.451 16.0622 37.8405 16.2149V16.9607C37.4845 16.7313 37.0676 16.6145 36.6442 16.6256C36.432 16.6185 36.2206 16.6557 36.0235 16.7349C35.8265 16.814 35.6481 16.9334 35.4998 17.0853C35.3502 17.2442 35.2338 17.4314 35.1575 17.6358C35.0811 17.8402 35.0463 18.0578 35.0551 18.2758C35.0307 18.7046 35.1675 19.127 35.4387 19.46C35.5701 19.6036 35.7315 19.7165 35.9114 19.7906C36.0913 19.8648 36.2854 19.8984 36.4798 19.8892C36.7499 19.896 37.0175 19.8364 37.2591 19.7156V18.6778H36.3411V18.0692H37.9802V20.1423ZM40.7195 20.5138C40.4383 20.5258 40.1578 20.4775 39.8968 20.3719C39.6359 20.2663 39.4007 20.106 39.207 19.9018C38.8187 19.4648 38.6156 18.8938 38.6406 18.3098C38.6094 17.696 38.8167 17.094 39.2191 16.6295C39.4206 16.4183 39.6653 16.253 39.9364 16.1448C40.2075 16.0366 40.4987 15.988 40.7903 16.0025C41.0662 15.9912 41.3413 16.0398 41.5967 16.1448C41.852 16.2499 42.0817 16.4089 42.2698 16.6111C42.6571 17.0485 42.859 17.6194 42.8328 18.2031C42.8666 18.8195 42.6603 19.425 42.2572 19.8926C42.0605 20.1002 41.8214 20.2631 41.5561 20.3702C41.2909 20.4773 41.0057 20.5261 40.72 20.5133L40.7195 20.5138ZM40.7534 16.6382C40.5672 16.6332 40.3823 16.6709 40.2129 16.7485C40.0435 16.8261 39.8942 16.9415 39.7763 17.0858C39.5145 17.4209 39.3816 17.8389 39.402 18.2637C39.3814 18.6852 39.5108 19.1005 39.7671 19.4358C39.881 19.5791 40.0267 19.6939 40.1927 19.7711C40.3587 19.8483 40.5404 19.8857 40.7234 19.8804C40.9096 19.8891 41.0954 19.8555 41.2668 19.7822C41.4382 19.7089 41.5908 19.5978 41.7131 19.4571C41.9727 19.119 42.1012 18.6984 42.0749 18.2729C42.1025 17.8412 41.9777 17.4136 41.7223 17.0645C41.605 16.9233 41.4564 16.8113 41.2883 16.7373C41.1203 16.6633 40.9368 16.6294 40.7534 16.6382Z" fill="#42474B"/>
<path opacity="0.9" d="M92.6321 34.6863H71.6198V35.853H92.6321V34.6863Z" fill="#216BDB"/>
</g>
<defs>
<clipPath id="clip0_510_109577">
<rect width="286" height="35.0116" fill="white" transform="translate(0.5177 0.841309)"/>
</clipPath>
</defs>
</svg>
