<svg width="286" height="35" viewBox="0 0 286 35" fill="none" xmlns="http://www.w3.org/2000/svg">
<path d="M87.1593 18.1005C87.1593 17.1357 86.3772 16.3535 85.4124 16.3535H77.2742C76.3094 16.3535 75.5272 17.1357 75.5272 18.1005V18.1005C75.5272 19.0653 76.3094 19.8475 77.2742 19.8475H85.4124C86.3772 19.8475 87.1593 19.0653 87.1593 18.1005V18.1005Z" fill="#216BDB"/>
<path d="M110.423 18.1005C110.423 17.1357 109.64 16.3535 108.676 16.3535H100.538C99.5731 16.3535 98.791 17.1357 98.791 18.1005V18.1005C98.791 19.0653 99.5731 19.8475 100.538 19.8475H108.676C109.64 19.8475 110.423 19.0653 110.423 18.1005V18.1005Z" fill="#CED0D3"/>
<path d="M129.033 18.1012C129.033 17.1361 128.251 16.3535 127.286 16.3535H119.147C118.183 16.3535 117.4 17.1357 117.4 18.1005V18.1005C117.4 19.0653 118.183 19.8475 119.147 19.8475H127.286C128.25 19.8475 129.032 19.0658 129.033 18.1012V18.1012Z" fill="#CED0D3"/>
<path d="M147.646 18.1005C147.646 17.1357 146.864 16.3535 145.899 16.3535H137.76C136.795 16.3535 136.013 17.1357 136.013 18.1005V18.1005C136.013 19.0653 136.795 19.8475 137.76 19.8475H145.899C146.864 19.8475 147.646 19.0653 147.646 18.1005V18.1005Z" fill="#CED0D3"/>
<path d="M166.256 18.1005C166.256 17.1357 165.473 16.3535 164.509 16.3535H156.37C155.406 16.3535 154.623 17.1357 154.623 18.1005V18.1005C154.623 19.0653 155.406 19.8475 156.37 19.8475H164.509C165.473 19.8475 166.256 19.0653 166.256 18.1005V18.1005Z" fill="#CED0D3"/>
<path d="M184.866 18.1005C184.866 17.1357 184.084 16.3535 183.119 16.3535H174.982C174.017 16.3535 173.235 17.1357 173.235 18.1005V18.1005C173.235 19.0653 174.017 19.8475 174.982 19.8475H183.119C184.084 19.8475 184.866 19.0653 184.866 18.1005V18.1005Z" fill="#CED0D3"/>
<path d="M203.477 18.1005C203.477 17.1357 202.695 16.3535 201.73 16.3535H193.592C192.628 16.3535 191.845 17.1357 191.845 18.1005V18.1005C191.845 19.0653 192.628 19.8475 193.592 19.8475H201.73C202.695 19.8475 203.477 19.0653 203.477 18.1005V18.1005Z" fill="#CED0D3"/>
<path opacity="0.3" d="M253.494 16.0239C253.494 14.9194 252.599 14.0239 251.494 14.0239H218.272C217.168 14.0239 216.272 14.9194 216.272 16.0239V21.3409C216.272 22.4455 217.168 23.3409 218.272 23.3409H251.494C252.599 23.3409 253.494 22.4455 253.494 21.3409V16.0239Z" fill="#42474B"/>
<path d="M247.678 18.5181C247.678 17.9658 247.23 17.5181 246.678 17.5181H223.088C222.536 17.5181 222.088 17.9658 222.088 18.5181V18.8472C222.088 19.3995 222.536 19.8472 223.088 19.8472H246.678C247.23 19.8472 247.678 19.3995 247.678 18.8472V18.5181Z" fill="white"/>
<path d="M267.937 19.8723C268.322 19.4871 268.585 18.9962 268.691 18.4617C268.798 17.9272 268.743 17.3731 268.535 16.8696C268.327 16.366 267.973 15.9356 267.52 15.6327C267.067 15.3299 266.534 15.1682 265.989 15.1682C265.444 15.1682 264.912 15.3299 264.459 15.6327C264.005 15.9356 263.652 16.366 263.444 16.8696C263.235 17.3731 263.181 17.9272 263.288 18.4617C263.394 18.9962 263.657 19.4871 264.042 19.8723C264.559 20.3875 265.26 20.6768 265.989 20.6768C266.719 20.6768 267.42 20.3875 267.937 19.8723Z" fill="white"/>
<path d="M267.731 19.6666C268.076 19.322 268.31 18.8829 268.405 18.4049C268.501 17.9269 268.452 17.4314 268.265 16.9811C268.079 16.5308 267.763 16.1459 267.358 15.8751C266.953 15.6043 266.476 15.4597 265.989 15.4597C265.501 15.4597 265.025 15.6043 264.62 15.8751C264.214 16.1459 263.898 16.5308 263.712 16.9811C263.526 17.4314 263.477 17.9269 263.572 18.4049C263.667 18.8829 263.902 19.322 264.247 19.6666C264.709 20.1276 265.336 20.3864 265.989 20.3864C266.642 20.3864 267.268 20.1276 267.731 19.6666Z" stroke="#42474B" stroke-width="0.5"/>
<path d="M267.288 19.2231L269.884 21.8223" stroke="#42474B" stroke-width="0.5"/>
<rect x="15.4823" y="10" width="38" height="15" rx="2" fill="#CED0D3"/>
<path d="M28.8992 19.4405H26.4823V15.0762H27.2068V18.8295H28.8992V19.4405ZM31.1429 19.5138C30.8616 19.5259 30.581 19.4775 30.32 19.372C30.059 19.2664 29.8237 19.1061 29.6299 18.9018C29.2416 18.4648 29.0385 17.8938 29.0636 17.3098C29.0323 16.696 29.2396 16.0939 29.6421 15.6295C29.8435 15.4183 30.088 15.253 30.3591 15.1448C30.6301 15.0366 30.9213 14.9881 31.2127 15.0025C31.4886 14.9913 31.7637 15.0398 32.0191 15.1449C32.2745 15.2499 32.5041 15.409 32.6922 15.6111C33.0786 16.0489 33.2798 16.6197 33.2533 17.2031C33.2877 17.8191 33.0823 18.4246 32.6801 18.8926C32.4834 19.1002 32.2443 19.2631 31.979 19.3701C31.7138 19.4772 31.4287 19.5265 31.1429 19.5138ZM31.1764 15.6382C30.9901 15.6332 30.8052 15.6709 30.6358 15.7485C30.4664 15.8261 30.3171 15.9415 30.1992 16.0858C29.9374 16.4209 29.8045 16.8389 29.8249 17.2637C29.8044 17.6852 29.9338 18.1004 30.19 18.4358C30.3039 18.579 30.4495 18.6938 30.6154 18.771C30.7813 18.8482 30.9629 18.8857 31.1458 18.8804C31.332 18.8891 31.5177 18.8556 31.689 18.7823C31.8603 18.7089 32.0128 18.5978 32.1351 18.4571C32.3949 18.1191 32.5235 17.6984 32.4973 17.2729C32.5251 16.8411 32.4002 16.4134 32.1443 16.0645C32.027 15.9233 31.8785 15.8113 31.7106 15.7373C31.5426 15.6633 31.3597 15.6294 31.1764 15.6382ZM37.4625 19.1423C36.9959 19.3929 36.4732 19.5207 35.9437 19.5138C35.655 19.5257 35.367 19.4784 35.0974 19.3747C34.8277 19.2711 34.5822 19.1132 34.3759 18.911C34.173 18.6996 34.0153 18.4491 33.9122 18.1749C33.809 17.9006 33.7627 17.6083 33.7761 17.3156C33.7653 17.0084 33.8178 16.7023 33.9304 16.4163C34.0431 16.1303 34.2133 15.8706 34.4307 15.6533C34.6501 15.4374 34.9111 15.2683 35.1979 15.1563C35.4847 15.0444 35.7912 14.9919 36.0988 15.002C36.517 14.9898 36.9333 15.0622 37.3228 15.2149V15.9607C36.9668 15.7313 36.5499 15.6145 36.1265 15.6256C35.9143 15.6185 35.7029 15.6557 35.5058 15.7349C35.3088 15.814 35.1304 15.9334 34.9821 16.0853C34.8325 16.2442 34.7161 16.4314 34.6398 16.6358C34.5634 16.8402 34.5286 17.0578 34.5374 17.2758C34.513 17.7046 34.6498 18.127 34.921 18.46C35.0524 18.6036 35.2138 18.7165 35.3937 18.7906C35.5736 18.8648 35.7677 18.8984 35.9621 18.8892C36.2322 18.896 36.4998 18.8364 36.7414 18.7156V17.6778H35.8234V17.0692H37.4625V19.1423ZM40.2018 19.5138C39.9206 19.5258 39.6401 19.4775 39.3791 19.3719C39.1182 19.2663 38.883 19.106 38.6893 18.9018C38.301 18.4648 38.0979 17.8938 38.1229 17.3098C38.0917 16.696 38.299 16.094 38.7014 15.6295C38.9029 15.4183 39.1476 15.253 39.4187 15.1448C39.6898 15.0366 39.981 14.988 40.2726 15.0025C40.5485 14.9912 40.8236 15.0398 41.079 15.1448C41.3343 15.2499 41.564 15.4089 41.7521 15.6111C42.1394 16.0485 42.3413 16.6194 42.3151 17.2031C42.3489 17.8195 42.1426 18.425 41.7395 18.8926C41.5428 19.1002 41.3037 19.2631 41.0384 19.3702C40.7732 19.4773 40.488 19.5261 40.2023 19.5133L40.2018 19.5138ZM40.2357 15.6382C40.0495 15.6332 39.8646 15.6709 39.6952 15.7485C39.5258 15.8261 39.3765 15.9415 39.2586 16.0858C38.9968 16.4209 38.8639 16.8389 38.8843 17.2637C38.8637 17.6852 38.9931 18.1005 39.2494 18.4358C39.3633 18.5791 39.509 18.6939 39.675 18.7711C39.841 18.8483 40.0227 18.8857 40.2057 18.8804C40.3919 18.8891 40.5777 18.8555 40.7491 18.7822C40.9205 18.7089 41.0731 18.5978 41.1954 18.4571C41.455 18.119 41.5835 17.6984 41.5572 17.2729C41.5848 16.8412 41.46 16.4136 41.2046 16.0645C41.0873 15.9233 40.9387 15.8113 40.7706 15.7373C40.6026 15.6633 40.4191 15.6294 40.2357 15.6382Z" fill="#42474B"/>
<rect x="0.5" y="0.5" width="285" height="33.8426" rx="3.5" stroke="#E0E3E7"/>
</svg>
